<?xml version="1.0" encoding="UTF-8" standalone="no"?>
<!-- Uploaded to: SVG Repo, www.svgrepo.com, Generator: SVG Repo Mixer Tools -->

<svg
   height="800px"
   width="800px"
   version="1.1"
   id="_x32_"
   viewBox="0 0 512 512"
   xml:space="preserve"
   sodipodi:docname="speech-bubble-issou.svg"
   inkscape:version="1.2.2 (b0a8486541, 2022-12-01)"
   xmlns:inkscape="http://www.inkscape.org/namespaces/inkscape"
   xmlns:sodipodi="http://sodipodi.sourceforge.net/DTD/sodipodi-0.dtd"
   xmlns="http://www.w3.org/2000/svg"
   xmlns:svg="http://www.w3.org/2000/svg"><defs
   id="defs45"><rect
     x="135.35715"
     y="255.1776"
     width="274.28513"
     height="123.86487"
     id="rect278" /></defs><sodipodi:namedview
   id="namedview43"
   pagecolor="#ffffff"
   bordercolor="#666666"
   borderopacity="1.0"
   inkscape:pageshadow="2"
   inkscape:pageopacity="0.0"
   inkscape:pagecheckerboard="0"
   showgrid="false"
   inkscape:zoom="1.005"
   inkscape:cx="400.99502"
   inkscape:cy="400.49751"
   inkscape:window-width="1920"
   inkscape:window-height="1016"
   inkscape:window-x="0"
   inkscape:window-y="27"
   inkscape:window-maximized="1"
   inkscape:current-layer="_x32_"
   inkscape:showpageshadow="2"
   inkscape:deskcolor="#d1d1d1" />
<style
   type="text/css"
   id="style36">
	.st0{fill:#000000;}
</style>
<g
   id="g40">
	<path
   class="st0"
   d="M442.539,73.946C397.7,36.018,333.59,13.863,255.205,13.881c-74.398,0-137.905,20.981-183.337,58.411   c-22.692,18.686-40.758,41.491-53.06,67.428C6.498,165.648-0.01,194.641,0,225.422c-0.018,37.214,7.777,71.586,23.511,101.577   c15,28.664,37.298,53.04,65.699,72.103c-6.715,28.269-16.148,68.67-16.148,68.689c-0.432,1.815-0.658,3.706-0.648,5.624   c-0.019,7.59,3.526,14.896,9.668,19.608l0.038,0.028l0.009,0.01c4.402,3.348,9.706,5.06,15,5.06c3.987,0,8.031-0.969,11.68-2.934   l0.367-0.188l0.357-0.216c0.01-0.01,5.069-3.01,12.856-7.618c11.671-6.903,29.435-17.407,45.291-26.745   c7.919-4.665,15.366-9.038,21.32-12.508c5.916-3.46,10.477-6.104,12.16-7.034l0.085-0.047l0.113-0.066   c22.1-12.526,39.704-14.633,53.849-14.708c58.692-0.085,121.212-11.464,171.13-42.62c24.894-15.602,46.561-36.413,61.806-63.056   c15.272-26.624,23.886-58.853,23.858-96.16C512.122,165.544,487.417,111.78,442.539,73.946z M454.709,301.24   c-8.812,15.375-20.37,28.316-34.232,39.282c-20.774,16.429-46.862,28.288-75.479,35.934c-28.598,7.664-59.642,11.088-89.792,11.078   c-18.517-0.075-44.379,3.414-72.761,19.683v-0.009c-3.14,1.749-10.128,5.822-19.345,11.219   c-13.222,7.759-30.62,18.019-45.15,26.614c3.545-15.094,7.655-32.576,10.73-45.413v-0.019c0.509-2.144,0.874-4.468,0.884-7.11   c0.037-3.724-0.922-8.266-3.075-12.046c-1.59-2.832-3.639-5.06-5.436-6.583c-2.736-2.285-4.796-3.273-5.944-3.903l-1.157-0.592   l-0.131-0.076C88.665,353.095,70.166,332.97,57.63,309.11c-12.517-23.896-19.1-51.78-19.11-83.689   c0.01-25.401,5.295-48.526,15.085-69.188c14.718-30.94,39.668-56.604,73.786-74.896c34.091-18.254,77.398-28.937,127.814-28.937   c71.276,0.019,125.933,20.031,162.45,50.952c36.47,31.025,55.702,72.799,55.824,120.864   C473.452,255.723,466.417,280.729,454.709,301.24z"
   id="path38" />
</g>
<text
   xml:space="preserve"
   style="font-style:normal;font-variant:normal;font-weight:normal;font-stretch:normal;font-size:81.0667px;line-height:1.25;font-family:Chilanka;-inkscape-font-specification:'Chilanka, Normal';font-variant-ligatures:normal;font-variant-caps:normal;font-variant-numeric:normal;font-variant-east-asian:normal;fill:#000000;fill-opacity:1;stroke:none;stroke-width:0.64"
   x="99.148636"
   y="246.69263"
   id="text2395"><tspan
     sodipodi:role="line"
     id="tspan2393"
     style="font-style:normal;font-variant:normal;font-weight:normal;font-stretch:normal;font-size:81.0667px;font-family:Chilanka;-inkscape-font-specification:'Chilanka, Normal';font-variant-ligatures:normal;font-variant-caps:normal;font-variant-numeric:normal;font-variant-east-asian:normal;stroke-width:0.64"
     x="99.148636"
     y="246.69263">PHILIPPE !</tspan></text><path
   style="fill:#ffffff;stroke-width:0.995025"
   d="m 185.43483,692.41316 c 2.66421,-8.66956 16.77998,-70.94738 17.22493,-75.99525 1.46376,-16.60611 -6.57657,-30.03618 -23.764,-39.69391 C 159.90599,566.05351 126.41448,535.65384 111.37328,515.43499 84.287612,479.02558 68.6393,438.21589 62.531746,388.0597 c -0.809609,-6.64864 -1.306395,-20.71036 -1.265515,-35.82089 0.05517,-20.39017 0.458298,-27.38748 2.235715,-38.80597 4.151385,-26.66937 10.922173,-48.26504 22.537825,-71.8852 31.504589,-64.06383 90.630269,-111.86928 170.742009,-138.05167 76.8904,-25.129582 177.11978,-28.019283 260.13364,-7.499883 27.60205,6.822683 48.57259,14.277213 72.63682,25.820653 31.24039,14.98579 55.45305,32.04732 79.12489,55.7556 37.47176,37.52945 60.43873,83.87231 68.31711,137.85055 2.4332,16.67092 2.41103,55.89703 -0.0411,72.63681 -6.44111,43.97193 -21.10803,78.93846 -46.11925,109.95025 -8.40106,10.41661 -26.76984,27.95076 -38.6348,36.87934 -32.08587,24.14517 -72.99438,42.65309 -120.66284,54.59055 -36.65519,9.17944 -68.94863,13.39356 -114.62087,14.95741 -15.59701,0.53405 -32.45387,1.21517 -37.45969,1.51359 -17.26927,1.0295 -40.2976,6.14483 -58.78145,13.05725 -20.29305,7.589 -26.23653,10.79731 -95.30115,51.4438 -21.34328,12.56113 -39.18976,23.0609 -39.65883,23.3328 -0.46909,0.27191 -0.59485,-0.34528 -0.27947,-1.37153 z M 658.845,398.59416 c 4.69039,-3.80048 1.69157,-17.99845 -3.97503,-18.81979 -4.36139,-0.63217 -7.12087,3.77632 -7.27846,11.62796 -0.0744,3.70765 0.37879,4.90017 2.58276,6.79595 3.25258,2.79774 5.57554,2.90381 8.67073,0.39588 z M 169.11922,386.63258 c 0.60595,-1.13224 1.03003,-9.67836 1.03003,-20.75751 V 347.0422 l 8.70647,-0.52451 c 18.84083,-1.13503 31.09453,-10.2519 31.09453,-23.13461 0,-14.03482 -15.54767,-24.64491 -39.45156,-26.92266 -11.21797,-1.06895 -10.60007,-4.08268 -9.74216,47.51602 0.49432,29.7308 1.05874,43.31485 1.82073,43.81927 2.07598,1.37423 5.51084,0.76353 6.54196,-1.16313 z m 60.15263,1.32066 c 1.36401,-0.52342 1.57392,-3.31018 1.57392,-20.89552 v -20.29155 h 19.40299 19.40298 v 19.20398 c 0,20.22056 0.28931,21.59204 4.55479,21.59204 4.7095,0 4.72953,-0.2225 4.16843,-46.30384 -0.3936,-32.32447 -0.83886,-43.63338 -1.76173,-44.74537 -1.71234,-2.06326 -4.32754,-1.85879 -6.46731,0.50563 -1.66225,1.83676 -1.75314,3.52108 -1.1546,21.39303 l 0.6497,19.39931 h -19.39763 -19.39762 v -19.33192 c 0,-16.24777 -0.24945,-19.58136 -1.56361,-20.89552 -1.66732,-1.66732 -3.2802,-1.93337 -5.81769,-0.95964 -1.40218,0.53807 -1.57392,5.37672 -1.57392,44.34402 0,28.2483 0.36481,44.42171 1.03003,45.66469 1.0371,1.93784 3.44056,2.43761 6.35127,1.32066 z m 189.43462,-0.59006 c 0.84829,-0.84828 1.19403,-6.89883 1.19403,-20.89552 v -19.70149 l 6.71642,-0.0118 c 11.10124,-0.0195 20.54956,-3.28117 26.95056,-9.30356 4.72775,-4.44813 6.13401,-7.69889 6.13401,-14.17964 0,-13.87222 -13.34042,-23.55467 -36.48404,-26.48003 -7.38413,-0.93335 -9.42088,-0.90388 -10.69651,0.15481 -1.39402,1.15697 -1.57567,6.37511 -1.57567,45.26547 0,46.2617 0.008,46.34583 4.47762,46.34583 1.14925,0 2.62686,-0.53731 3.28358,-1.19403 z m 60.69652,0 c 0.84773,-0.84773 1.19402,-6.8687 1.19402,-20.75994 v -19.56591 l 9.29069,-0.48597 c 18.4944,-0.96737 30.7946,-10.27903 30.7946,-23.31252 0,-13.64328 -13.75749,-23.53914 -36.76833,-26.44771 -7.38413,-0.93335 -9.42089,-0.90388 -10.69652,0.15481 -1.39402,1.15694 -1.57566,6.37508 -1.57566,45.26544 0,46.2617 0.008,46.34583 4.47761,46.34583 1.14926,0 2.62687,-0.53731 3.28359,-1.19403 z m -181.09453,-0.99502 c 0.89228,-0.89228 1.19403,-12.18984 1.19403,-44.70505 0,-38.22876 -0.18982,-43.70083 -1.56361,-45.07462 -1.86221,-1.86221 -4.54498,-2.02219 -6.19759,-0.36958 -0.89228,0.89227 -1.19403,12.18984 -1.19403,44.70504 0,38.22877 0.18982,43.70084 1.56362,45.07463 1.8622,1.86221 4.54497,2.02219 6.19758,0.36958 z m 99.50249,0 c 0.89227,-0.89228 1.19403,-12.18984 1.19403,-44.70505 0,-38.22876 -0.18983,-43.70083 -1.56362,-45.07462 -1.86221,-1.86221 -4.54497,-2.02219 -6.19758,-0.36958 -0.89228,0.89227 -1.19403,12.18984 -1.19403,44.70504 0,38.22877 0.18982,43.70084 1.56361,45.07463 1.86221,1.86221 4.54498,2.02219 6.19759,0.36958 z m -48.20491,-1.44793 c 7.71196,-0.40852 14.18119,-0.1984 18.68792,0.607 7.89714,1.4113 10.12572,0.52083 9.61704,-3.84267 -0.53293,-4.57155 -4.39149,-5.56113 -21.69209,-5.56326 -8.48259,-9.9e-4 -19.27037,0.38978 -23.97286,0.86851 l -8.54997,0.87041 -0.61388,-7.33807 c -0.33763,-4.03594 -1.10634,-21.44255 -1.70823,-38.68135 -0.60189,-17.23881 -1.29263,-32.32091 -1.53497,-33.51578 -0.53917,-2.65827 -3.63456,-3.78843 -6.36858,-2.32524 -1.90943,1.0219 -2.02653,1.99672 -2.00864,16.72179 0.0175,14.42603 0.94428,35.90673 2.60228,60.31677 0.91952,13.53777 1.4172,13.99937 14.17423,13.14661 5.26496,-0.35195 14.88045,-0.92107 21.36775,-1.26472 z m 245.76529,-1.21122 c 1.81399,-1.50719 2.09272,-3.84677 0.71721,-6.02008 -0.74531,-1.1776 -5.44978,-1.37407 -27.98485,-1.16877 l -27.08892,0.24679 0.63689,-3.18447 c 0.3503,-1.75147 0.6369,-8.71755 0.6369,-15.48021 v -12.29574 l 24.12935,-0.26645 24.12935,-0.26645 0.33412,-2.93601 c 0.59358,-5.21596 -0.84038,-5.5217 -25.89743,-5.5217 h -22.69539 v -15.34369 -15.34368 l 6.46905,-0.69278 c 8.20201,-0.87837 34.00532,0.97325 41.58944,2.98441 7.29156,1.93357 9.28854,1.92485 10.044,-0.0439 1.85631,-4.83746 0.1068,-6.62842 -8.80286,-9.01135 -12.6269,-3.37714 -54.61748,-4.12052 -57.09417,-1.01077 -1.3983,1.7557 -2.1433,84.84174 -0.77305,86.21476 1.74363,1.74715 59.48188,0.94177 61.65036,-0.85995 z m 62.21286,-14.92504 c 2.65777,-2.65777 3.59525,-20.19686 2.10761,-39.43074 -1.23585,-15.97847 -2.27411,-19.72604 -5.59699,-20.20221 -3.69389,-0.52932 -5.10226,2.17334 -5.98011,11.47584 -1.0145,10.75047 -1.03824,41.54793 -0.0349,45.33661 1.15763,4.37154 6.39823,5.92672 9.50445,2.8205 z"
   id="path47"
   transform="scale(0.64)" /><path
   style="fill:#ffffff;stroke-width:0.995025"
   d="m 170.14925,326.63488 c 0,-6.28746 -0.29432,-13.57909 -0.65405,-16.20361 l -0.65406,-4.77185 5.38043,0.55597 c 14.31831,1.47955 26.78593,9.568 26.76974,17.36704 -0.0144,6.94118 -10.44074,13.30319 -22.99263,14.02981 l -7.84943,0.4544 z"
   id="path111"
   transform="scale(0.64)" /><path
   style="fill:#ffffff;stroke-width:0.995025"
   d="m 419.9005,321.8814 v -16.18524 l 5.45209,0.64078 c 13.44661,1.58039 25.39368,9.50264 25.39368,16.83888 0,7.66433 -9.52028,13.60016 -23.13433,14.42411 l -7.71144,0.46671 z"
   id="path150"
   transform="scale(0.64)" /><path
   style="fill:#ffffff;stroke-width:0.995025"
   d="m 480.59701,321.89381 v -16.19765 l 5.49031,0.64527 c 15.69067,1.84413 28.02366,11.44754 25.17939,19.6066 -2.28097,6.5432 -10.53519,10.80537 -22.46074,11.59789 l -8.20896,0.54554 z"
   id="path189"
   transform="scale(0.64)" /><rect
   style="fill:#ffffff;stroke-width:0.64"
   id="rect170"
   width="343.77237"
   height="110.07069"
   x="93.667442"
   y="165.70975" /><text
   xml:space="preserve"
   style="font-size:93.8667px;fill:#000000;stroke-width:0.64"
   x="93.843918"
   y="260.9093"
   id="text386"><tspan
     sodipodi:role="line"
     id="tspan384"
     style="font-size:93.8667px;stroke-width:0.64"
     x="93.843918"
     y="260.9093">ISSOU !</tspan></text></svg>
