<?xml version="1.0" encoding="UTF-8" standalone="no"?>
<!-- Uploaded to: SVG Repo, www.svgrepo.com, Generator: SVG Repo Mixer Tools -->

<svg
   height="800px"
   width="800px"
   version="1.1"
   id="_x32_"
   viewBox="0 0 512 512"
   xml:space="preserve"
   sodipodi:docname="speech-bubble.svg"
   inkscape:version="1.2.2 (b0a8486541, 2022-12-01)"
   xmlns:inkscape="http://www.inkscape.org/namespaces/inkscape"
   xmlns:sodipodi="http://sodipodi.sourceforge.net/DTD/sodipodi-0.dtd"
   xmlns="http://www.w3.org/2000/svg"
   xmlns:svg="http://www.w3.org/2000/svg"><defs
   id="defs45"><rect
     x="135.35715"
     y="255.1776"
     width="274.28513"
     height="123.86487"
     id="rect278" /></defs><sodipodi:namedview
   id="namedview43"
   pagecolor="#ffffff"
   bordercolor="#666666"
   borderopacity="1.0"
   inkscape:pageshadow="2"
   inkscape:pageopacity="0.0"
   inkscape:pagecheckerboard="0"
   showgrid="false"
   inkscape:zoom="1.005"
   inkscape:cx="403.9801"
   inkscape:cy="402.48756"
   inkscape:window-width="1920"
   inkscape:window-height="1016"
   inkscape:window-x="0"
   inkscape:window-y="27"
   inkscape:window-maximized="1"
   inkscape:current-layer="_x32_"
   inkscape:showpageshadow="2"
   inkscape:deskcolor="#d1d1d1" />
<style
   type="text/css"
   id="style36">
	.st0{fill:#000000;}
</style>
<g
   id="g40">
	<path
   class="st0"
   d="M442.539,73.946C397.7,36.018,333.59,13.863,255.205,13.881c-74.398,0-137.905,20.981-183.337,58.411   c-22.692,18.686-40.758,41.491-53.06,67.428C6.498,165.648-0.01,194.641,0,225.422c-0.018,37.214,7.777,71.586,23.511,101.577   c15,28.664,37.298,53.04,65.699,72.103c-6.715,28.269-16.148,68.67-16.148,68.689c-0.432,1.815-0.658,3.706-0.648,5.624   c-0.019,7.59,3.526,14.896,9.668,19.608l0.038,0.028l0.009,0.01c4.402,3.348,9.706,5.06,15,5.06c3.987,0,8.031-0.969,11.68-2.934   l0.367-0.188l0.357-0.216c0.01-0.01,5.069-3.01,12.856-7.618c11.671-6.903,29.435-17.407,45.291-26.745   c7.919-4.665,15.366-9.038,21.32-12.508c5.916-3.46,10.477-6.104,12.16-7.034l0.085-0.047l0.113-0.066   c22.1-12.526,39.704-14.633,53.849-14.708c58.692-0.085,121.212-11.464,171.13-42.62c24.894-15.602,46.561-36.413,61.806-63.056   c15.272-26.624,23.886-58.853,23.858-96.16C512.122,165.544,487.417,111.78,442.539,73.946z M454.709,301.24   c-8.812,15.375-20.37,28.316-34.232,39.282c-20.774,16.429-46.862,28.288-75.479,35.934c-28.598,7.664-59.642,11.088-89.792,11.078   c-18.517-0.075-44.379,3.414-72.761,19.683v-0.009c-3.14,1.749-10.128,5.822-19.345,11.219   c-13.222,7.759-30.62,18.019-45.15,26.614c3.545-15.094,7.655-32.576,10.73-45.413v-0.019c0.509-2.144,0.874-4.468,0.884-7.11   c0.037-3.724-0.922-8.266-3.075-12.046c-1.59-2.832-3.639-5.06-5.436-6.583c-2.736-2.285-4.796-3.273-5.944-3.903l-1.157-0.592   l-0.131-0.076C88.665,353.095,70.166,332.97,57.63,309.11c-12.517-23.896-19.1-51.78-19.11-83.689   c0.01-25.401,5.295-48.526,15.085-69.188c14.718-30.94,39.668-56.604,73.786-74.896c34.091-18.254,77.398-28.937,127.814-28.937   c71.276,0.019,125.933,20.031,162.45,50.952c36.47,31.025,55.702,72.799,55.824,120.864   C473.452,255.723,466.417,280.729,454.709,301.24z"
   id="path38" />
</g>
<path
   style="fill:#ffffff;stroke-width:0.995025"
   d="m 185.57214,693.21975 c 0,-0.43544 3.85165,-17.11041 8.55921,-37.05548 8.08458,-34.25281 8.53771,-36.76346 8.17142,-45.27472 -0.31222,-7.2545 -0.91115,-10.08059 -3.07264,-14.49853 -3.50097,-7.15573 -10.04305,-13.69012 -18.70749,-18.68555 C 164.64962,568.554 137.7724,546.41326 125.32118,532.23199 88.826202,490.66618 69.269116,445.68129 62.696949,388.18475 60.627594,370.08101 60.62688,336.45321 62.695499,319.9005 69.506091,265.4034 93.219976,216.38935 131.27379,178.15656 c 40.78186,-40.97367 93.81977,-68.89913 159.62015,-84.043016 74.63274,-17.176641 166.79217,-15.231247 238.45929,5.03364 42.43507,11.999116 79.21628,29.687906 110.78074,53.276596 13.43592,10.0409 39.73228,35.77746 48.61104,47.57622 28.04327,37.26594 44.14673,77.44883 49.04754,122.38806 1.53833,14.10618 1.31054,46.50928 -0.43018,61.19403 -6.33954,53.48041 -26.10936,95.41769 -61.68722,130.85584 -45.21193,45.03439 -115.83008,74.92389 -203.03833,85.93704 -18.47724,2.33341 -39.21933,3.72331 -76.11941,5.10067 -51.46836,1.92115 -75.63785,9.36267 -126.86567,39.06055 -19.54203,11.32893 -71.02627,41.57172 -79.35323,46.61354 -2.59951,1.57395 -4.72637,2.50545 -4.72637,2.07002 z"
   id="path239"
   transform="scale(0.64)" /></svg>
